<svg width="72" height="73" viewBox="0 0 72 73" fill="none" xmlns="http://www.w3.org/2000/svg">
<path d="M51.9019 32H69.5981C70.5519 32 71.073 33.1125 70.4623 33.8452L61.6143 44.4629C61.1645 45.0026 60.3355 45.0026 59.8858 44.4629L51.0377 33.8452C50.4271 33.1125 50.9481 32 51.9019 32Z" fill="#DAFF01"/>
<path d="M2.40193 41H20.0981C21.0519 41 21.573 39.8875 20.9623 39.1548L12.1143 28.5371C11.6645 27.9974 10.8355 27.9974 10.3858 28.5371L1.53768 39.1548C0.927062 39.8875 1.44811 41 2.40193 41Z" fill="#DAFF01"/>
<path fill-rule="evenodd" clip-rule="evenodd" d="M36 14C29.0138 14 22.7726 17.1813 18.6421 22.1828C17.8508 23.1409 16.4326 23.2761 15.4745 22.4849C14.5164 21.6936 14.3811 20.2754 15.1724 19.3172C20.121 13.3251 27.6148 9.5 36 9.5C49.2377 9.5 60.2461 19.0243 62.5549 31.5935C62.5797 31.7287 62.6035 31.8642 62.6263 32H58.0504C55.9668 21.73 46.8838 14 36 14ZM13.9496 41C16.0332 51.27 25.1162 59 36 59C42.9862 59 49.2275 55.8186 53.3579 50.8172C54.1492 49.8591 55.5674 49.7239 56.5255 50.5151C57.4837 51.3064 57.6189 52.7246 56.8276 53.6828C51.879 59.6749 44.3852 63.5 36 63.5C22.7623 63.5 11.7539 53.9757 9.44513 41.4065C9.4203 41.2713 9.39649 41.1358 9.37368 41H13.9496Z" fill="#DAFF01"/>
</svg>
