<svg width="49" height="40" viewBox="0 0 49 40" fill="none" xmlns="http://www.w3.org/2000/svg">
<path d="M1.35606 1.17647H7.99135L10.2737 8.04706C10.2737 8.05882 10.2737 8.05882 10.2855 8.07059L17.1561 28.6706L14.7208 31.1059C14.2031 31.6235 14.0619 32.3529 14.3325 33.0235C14.6149 33.7059 15.2384 34.1176 15.9561 34.1176H46.0619C46.3914 34.1176 46.6502 33.8588 46.6502 33.5294C46.6502 33.2 46.3914 32.9412 46.0619 32.9412H15.9561C15.5914 32.9412 15.4502 32.6588 15.4149 32.5765C15.3796 32.4941 15.2855 32.1882 15.5443 31.9412L18.0737 29.4118H43.709C43.9796 29.4118 44.2149 29.2235 44.2737 28.9647L48.9796 10.1412C49.0266 9.97647 48.9914 9.78824 48.8855 9.64706C48.7796 9.50588 48.6149 9.42353 48.4502 9.41177L11.2737 7.30588L8.97959 0.4C8.89723 0.164706 8.6737 0 8.41488 0H1.35606C1.02665 0 0.767822 0.258824 0.767822 0.588235C0.767822 0.917647 1.02665 1.17647 1.35606 1.17647ZM47.6737 10.5412L43.2502 28.2353H18.2502L11.6737 8.50588L47.6737 10.5412Z" fill="white"/>
<path d="M19.5913 37.0589C19.5913 38.6824 20.909 40 22.5325 40C24.156 40 25.4737 38.6824 25.4737 37.0589C25.4737 35.4353 24.156 34.1177 22.5325 34.1177C20.909 34.1177 19.5913 35.4353 19.5913 37.0589ZM22.5325 35.2941C23.509 35.2941 24.2972 36.0824 24.2972 37.0589C24.2972 38.0353 23.509 38.8236 22.5325 38.8236C21.556 38.8236 20.7678 38.0353 20.7678 37.0589C20.7678 36.0824 21.556 35.2941 22.5325 35.2941Z" fill="white"/>
<path d="M36.0619 37.0589C36.0619 38.6824 37.3795 40 39.0031 40C40.6266 40 41.9442 38.6824 41.9442 37.0589C41.9442 35.4353 40.6266 34.1177 39.0031 34.1177C37.3795 34.1177 36.0619 35.4353 36.0619 37.0589ZM39.0031 35.2941C39.9795 35.2941 40.7678 36.0824 40.7678 37.0589C40.7678 38.0353 39.9795 38.8236 39.0031 38.8236C38.0266 38.8236 37.2384 38.0353 37.2384 37.0589C37.2384 36.0824 38.0266 35.2941 39.0031 35.2941Z" fill="white"/>
<path d="M23.1561 24.3061C23.2384 24.5531 23.4619 24.7061 23.709 24.7061C23.7678 24.7061 23.8384 24.6943 23.8972 24.6708C24.2031 24.5649 24.3678 24.2355 24.2737 23.9296L20.7443 13.3414C20.6384 13.0355 20.309 12.8708 20.0031 12.9649C19.6972 13.0708 19.5325 13.4002 19.6266 13.7061L23.1561 24.3061Z" fill="white"/>
<path d="M37.6384 24.671C37.6972 24.6945 37.7678 24.7063 37.8266 24.7063C38.0737 24.7063 38.2972 24.5533 38.3795 24.3063L41.909 13.718C42.0148 13.4121 41.8501 13.071 41.5325 12.9768C41.2266 12.871 40.8972 13.0357 40.7913 13.3533L37.2619 23.9415C37.1678 24.2357 37.3325 24.5768 37.6384 24.671Z" fill="white"/>
<path d="M30.7678 24.7056C31.0972 24.7056 31.356 24.4468 31.356 24.1174V13.5292C31.356 13.1997 31.0972 12.9409 30.7678 12.9409C30.4384 12.9409 30.1796 13.1997 30.1796 13.5292V24.1174C30.1796 24.4468 30.4384 24.7056 30.7678 24.7056Z" fill="white"/>
</svg>
